<?xml version="1.0" encoding="UTF-8"?>
<svg width="32px" height="33px" viewBox="0 0 32 33" version="1.1" xmlns="http://www.w3.org/2000/svg" xmlns:xlink="http://www.w3.org/1999/xlink">
    <!-- Generator: Sketch 52.6 (67491) - http://www.bohemiancoding.com/sketch -->
    <title>Group 5</title>
    <desc>Created with Sketch.</desc>
    <g id="框架设计" stroke="none" stroke-width="1" fill-rule="evenodd">
        <g id="4快填" transform="translate(-1859.000000, -650.000000)" fill-rule="nonzero">
            <g id="内容" transform="translate(1824.000000, 181.000000)">
                <g id="列表内容" transform="translate(0.000000, 158.000000)">
                    <g id="数据展示/列表/填充--copy-5" transform="translate(0.000000, 288.000000)">
                        <g id="Group" transform="translate(35.000000, 20.745690)">
                            <g id="Group-2" transform="translate(0.000000, 3.000000)">
                                <g id="Group-5">
                                    <g id="系统操作类/常用/定位">
                                        <path d="M15,0 C21.0674152,-1.11456609e-15 25.9860271,4.91861187 25.9860271,10.9860271 C25.9860271,13.0133993 25.4250255,15.0012324 24.3651228,16.7294813 L15.8524576,30.6100054 C15.5637252,31.0808047 14.9480031,31.2283991 14.4772037,30.9396667 C14.3428783,30.8572874 14.2299216,30.7443308 14.1475424,30.6100054 L5.63487721,16.7294813 C2.46285503,11.5572668 4.08433129,4.79292647 9.25654579,1.6209043 C10.9847947,0.561001621 12.9726278,3.72422235e-16 15,0 Z M15,28.1744182 L22.6602075,15.6838887 C23.5271555,14.2702665 23.9860271,12.6443173 23.9860271,10.9860271 C23.9860271,6.02318137 19.9628457,2 15,2 C13.3417097,2 11.7157606,2.45887159 10.3021384,3.32581959 C6.07152258,5.92037693 4.74523516,11.4532729 7.3397925,15.6838887 L15,28.1744182 Z M15,16 C12.2385763,16 10,13.7614237 10,11 C10,8.23857625 12.2385763,6 15,6 C17.7614237,6 20,8.23857625 20,11 C20,13.7614237 17.7614237,16 15,16 Z M15,14 C16.6568542,14 18,12.6568542 18,11 C18,9.34314575 16.6568542,8 15,8 C13.3431458,8 12,9.34314575 12,11 C12,12.6568542 13.3431458,14 15,14 Z" id="Combined-Shape"></path>
                                    </g>
                                </g>
                            </g>
                        </g>
                    </g>
                </g>
            </g>
        </g>
    </g>
</svg>
