<?xml version="1.0" encoding="UTF-8"?>
<svg width="32px" height="32px" viewBox="0 0 32 32" version="1.1" xmlns="http://www.w3.org/2000/svg" xmlns:xlink="http://www.w3.org/1999/xlink">
    <!-- Generator: Sketch 52.6 (67491) - http://www.bohemiancoding.com/sketch -->
    <title>Icon/32/宫格视图</title>
    <desc>Created with Sketch.</desc>
    <g id="Icon/32/宫格视图" stroke="none" stroke-width="1" fill="none" fill-rule="evenodd">
        <path d="M13,6 C13,4.8954305 12.1045695,4 11,4 L6,4 C4.8954305,4 4,4.8954305 4,6 L4,11 C4,12.1045695 4.8954305,13 6,13 L13,13 L13,6 Z M6,2 L11,2 C13.209139,2 15,3.790861 15,6 L15,14 C15,14.5522847 14.5522847,15 14,15 L6,15 C3.790861,15 2,13.209139 2,11 L2,6 C2,3.790861 3.790861,2 6,2 Z M19,13 L26,13 C27.1045695,13 28,12.1045695 28,11 L28,6 C28,4.8954305 27.1045695,4 26,4 L21,4 C19.8954305,4 19,4.8954305 19,6 L19,13 Z M26,2 C28.209139,2 30,3.790861 30,6 L30,11 C30,13.209139 28.209139,15 26,15 L18,15 C17.4477153,15 17,14.5522847 17,14 L17,6 C17,3.790861 18.790861,2 21,2 L26,2 Z M13,19 L6,19 C4.8954305,19 4,19.8954305 4,21 L4,26 C4,27.1045695 4.8954305,28 6,28 L11,28 C12.1045695,28 13,27.1045695 13,26 L13,19 Z M6,30 C3.790861,30 2,28.209139 2,26 L2,21 C2,18.790861 3.790861,17 6,17 L14,17 C14.5522847,17 15,17.4477153 15,18 L15,26 C15,28.209139 13.209139,30 11,30 L6,30 Z M17,18 C17,17.4477153 17.4477153,17 18,17 C18.5522847,17 19,17.4477153 19,18 L19,26 C19,27.1045695 19.8954305,28 21,28 L26,28 C27.1045695,28 28,27.1045695 28,26 L28,21 C28,19.8954305 27.1045695,19 26,19 L18,19 C17.4477153,19 17,18.5522847 17,18 C17,17.4477153 17.4477153,17 18,17 L26,17 C28.209139,17 30,18.790861 30,21 L30,26 C30,28.209139 28.209139,30 26,30 L21,30 C18.790861,30 17,28.209139 17,26 L17,18 Z" id="Combined-Shape" fill="#737880" fill-rule="nonzero"></path>
    </g>
</svg>
