<?xml version="1.0" encoding="UTF-8"?>
<svg width="32px" height="32px" viewBox="0 0 32 32" version="1.1" xmlns="http://www.w3.org/2000/svg" xmlns:xlink="http://www.w3.org/1999/xlink">
    <!-- Generator: Sketch 52.6 (67491) - http://www.bohemiancoding.com/sketch -->
    <title>01栅格</title>
    <desc>Created with Sketch.</desc>
    <g id="框架设计" stroke="none" stroke-width="1" fill="none" fill-rule="evenodd">
        <g id="01侧边栏展开" transform="translate(-1344.000000, -509.000000)" fill="#50545D" fill-rule="nonzero">
            <g id="Group" transform="translate(1344.000000, 509.000000)">
                <g id="Icon/图标库">
                    <path d="M15.5625,0.695752147 C13.9056458,0.695752147 12.5625,2.0388979 12.5625,3.69575215 L12.5625,18.8207521 C12.5625,20.4776064 13.9056458,21.8207521 15.5625,21.8207521 L17.9375,21.8207521 C19.5943542,21.8207521 20.9375,20.4776064 20.9375,18.8207521 L20.9375,3.69575215 C20.9375,2.0388979 19.5943542,0.695752147 17.9375,0.695752147 L15.5625,0.695752147 Z M15.5625,-1.30424785 L17.9375,-1.30424785 C20.6989237,-1.30424785 22.9375,0.934328398 22.9375,3.69575215 L22.9375,18.8207521 C22.9375,21.5821759 20.6989237,23.8207521 17.9375,23.8207521 L15.5625,23.8207521 C12.8010763,23.8207521 10.5625,21.5821759 10.5625,18.8207521 L10.5625,3.69575215 C10.5625,0.934328398 12.8010763,-1.30424785 15.5625,-1.30424785 Z" id="Rectangle" transform="translate(16.750000, 11.258252) rotate(-315.000000) translate(-16.750000, -11.258252) "></path>
                    <path d="M14.0625,10.1957521 C12.4056458,10.1957521 11.0625,11.5388979 11.0625,13.1957521 L11.0625,28.3207521 C11.0625,29.9776064 12.4056458,31.3207521 14.0625,31.3207521 L16.4375,31.3207521 C18.0943542,31.3207521 19.4375,29.9776064 19.4375,28.3207521 L19.4375,13.1957521 C19.4375,11.5388979 18.0943542,10.1957521 16.4375,10.1957521 L14.0625,10.1957521 Z M14.0625,8.19575215 L16.4375,8.19575215 C19.1989237,8.19575215 21.4375,10.4343284 21.4375,13.1957521 L21.4375,28.3207521 C21.4375,31.0821759 19.1989237,33.3207521 16.4375,33.3207521 L14.0625,33.3207521 C11.3010763,33.3207521 9.0625,31.0821759 9.0625,28.3207521 L9.0625,13.1957521 C9.0625,10.4343284 11.3010763,8.19575215 14.0625,8.19575215 Z" id="Rectangle-Copy" transform="translate(15.250000, 20.758252) rotate(-315.000000) translate(-15.250000, -20.758252) "></path>
                </g>
            </g>
        </g>
    </g>
</svg>
