<?xml version="1.0" encoding="UTF-8"?>
<svg width="32px" height="32px" viewBox="0 0 32 32" version="1.1" xmlns="http://www.w3.org/2000/svg" xmlns:xlink="http://www.w3.org/1999/xlink">
    <!-- Generator: Sketch 52.6 (67491) - http://www.bohemiancoding.com/sketch -->
    <title>Icon/32/列表视图</title>
    <desc>Created with Sketch.</desc>
    <g id="Icon/32/列表视图" stroke="none" stroke-width="1" fill="none" fill-rule="evenodd">
        <path d="M3,2 L5,2 C5.55228475,2 6,2.44771525 6,3 C6,3.55228475 5.55228475,4 5,4 L3,4 C2.44771525,4 2,3.55228475 2,3 C2,2.44771525 2.44771525,2 3,2 Z M3,15 L5,15 C5.55228475,15 6,15.4477153 6,16 C6,16.5522847 5.55228475,17 5,17 L3,17 C2.44771525,17 2,16.5522847 2,16 C2,15.4477153 2.44771525,15 3,15 Z M3,28 L5,28 C5.55228475,28 6,28.4477153 6,29 C6,29.5522847 5.55228475,30 5,30 L3,30 C2.44771525,30 2,29.5522847 2,29 C2,28.4477153 2.44771525,28 3,28 Z M9,2 L29,2 C29.5522847,2 30,2.44771525 30,3 C30,3.55228475 29.5522847,4 29,4 L9,4 C8.44771525,4 8,3.55228475 8,3 C8,2.44771525 8.44771525,2 9,2 Z M9,15 L29,15 C29.5522847,15 30,15.4477153 30,16 C30,16.5522847 29.5522847,17 29,17 L9,17 C8.44771525,17 8,16.5522847 8,16 C8,15.4477153 8.44771525,15 9,15 Z M9,28 L29,28 C29.5522847,28 30,28.4477153 30,29 C30,29.5522847 29.5522847,30 29,30 L9,30 C8.44771525,30 8,29.5522847 8,29 C8,28.4477153 8.44771525,28 9,28 Z" id="Combined-Shape" fill="#737880"></path>
    </g>
</svg>
