<?xml version="1.0" encoding="UTF-8"?>
<svg width="32px" height="33px" viewBox="0 0 32 33" version="1.1" xmlns="http://www.w3.org/2000/svg" xmlns:xlink="http://www.w3.org/1999/xlink">
    <!-- Generator: Sketch 52.6 (67491) - http://www.bohemiancoding.com/sketch -->
    <title>Group Copy 6</title>
    <desc>Created with Sketch.</desc>
    <g id="框架设计" stroke="none" stroke-width="1" fill-rule="evenodd">
        <g id="4快填" transform="translate(-1858.000000, -458.000000)" fill-rule="nonzero">
            <g id="内容" transform="translate(1824.000000, 181.000000)">
                <g id="列表内容" transform="translate(0.000000, 158.000000)">
                    <g id="数据展示/列表/填充--copy" transform="translate(0.000000, 96.000000)">
                        <g id="Group" transform="translate(34.000000, 20.745690)">
                            <g id="Group-4" transform="translate(0.000000, 3.000000)">
                                <g id="系统操作类/常用/电话手机/电话" transform="translate(1.000000, 0.000000)">
                                    <path d="M25.36162,23.0489899 L21.1425495,18.8299194 L18.3141224,21.6583465 C18.0140564,21.9584125 17.6339486,22.0457073 17.2506925,21.9978831 C17.0291304,21.9702356 16.8079265,21.8971694 16.5693977,21.7860568 C16.2007802,21.6143456 15.7635568,21.3358448 15.2594215,20.9602924 C14.3209194,20.261161 13.1549646,19.2260543 11.9773719,18.0484616 C10.8336811,16.9047708 9.80677041,15.7258674 9.09847272,14.7531004 C8.73845408,14.2586553 8.46652085,13.8257018 8.29659612,13.4668736 C8.18936937,13.240444 8.11653963,13.0329912 8.08329835,12.8277288 C8.02090722,12.4424683 8.08922997,12.0596962 8.40235101,11.7465752 L11.2307781,8.91814803 L6.97684367,4.66421356 L4.28480102,7.35625622 C4.25634339,7.52782629 4.24347502,7.76348587 4.25213889,8.04585297 C4.27487753,8.78693658 4.43596979,9.70399313 4.75406483,10.716393 C5.62424934,13.4859261 7.48320826,16.4930189 10.5080115,19.5178221 C13.5490197,22.5588303 16.5464618,24.4440914 19.267831,25.3236493 C20.2784899,25.6502986 21.1890113,25.8130448 21.9157426,25.8290395 C22.1971104,25.8352322 22.4302859,25.8181817 22.5932717,25.785769 C22.6080909,25.7828219 22.6215357,25.7799026 22.6335026,25.7771072 L25.36162,23.0489899 Z M21.8496563,16.7085991 L27.4829403,22.3418831 C27.8734646,22.7324074 27.8734646,23.3655724 27.4829403,23.7560967 L23.9474064,27.2916306 C23.195742,28.043295 21.0319008,27.9956709 18.6527507,27.2267196 C15.6215476,26.247022 12.3530258,24.1912635 9.09379791,20.9320356 C5.84526453,17.6835023 3.81466078,14.398753 2.84603008,11.3158957 C2.10631773,8.96161587 2.03917835,6.77345176 2.73420299,6.07842712 L6.26973689,2.54289322 C6.66026118,2.15236893 7.29342616,2.15236893 7.68395045,2.54289322 L13.3520985,8.21104125 C13.7426228,8.60156554 13.7426228,9.23473052 13.3520985,9.62525481 L10.1939563,12.783397 C10.3125181,12.9952984 10.4893997,13.2656222 10.7152878,13.575854 C11.3583061,14.4589672 12.3177131,15.5603757 13.3915855,16.6342481 C14.5055814,17.748244 15.6015118,18.7211847 16.4542251,19.3564082 C16.7708179,19.5922521 17.043082,19.7730894 17.2536139,19.8904279 L20.4354427,16.7085991 C20.825967,16.3180748 21.459132,16.3180748 21.8496563,16.7085991 Z" id="Combined-Shape-Copy"></path>
                                </g>
                            </g>
                        </g>
                    </g>
                </g>
            </g>
        </g>
    </g>
</svg>
