<?xml version="1.0" encoding="UTF-8"?>
<svg width="32px" height="32px" viewBox="0 0 32 32" version="1.1" xmlns="http://www.w3.org/2000/svg" xmlns:xlink="http://www.w3.org/1999/xlink">
    <!-- Generator: Sketch 52.6 (67491) - http://www.bohemiancoding.com/sketch -->
    <title>列表内容</title>
    <desc>Created with Sketch.</desc>
    <g id="框架设计" stroke="none" stroke-width="1" fill-rule="evenodd">
        <g id="4快填-copy" transform="translate(-1859.000000, -1115.000000)" fill-rule="nonzero">
            <g id="内容" transform="translate(1824.000000, 181.000000)">
                <g id="列表内容" transform="translate(0.000000, 158.000000)">
                    <g id="Group-2" transform="translate(0.000000, 752.000000)">
                        <g id="数据展示/列表/填充--copy-4">
                            <g id="Group" transform="translate(35.000000, 20.745690)">
                                <g id="系统操作类/常用/日历" transform="translate(0.000000, 3.000000)">
                                    <path d="M24,4 L29,4 C29.5522847,4 30,4.44771525 30,5 L30,27 C30,27.5522847 29.5522847,28 29,28 L3,28 C2.44771525,28 2,27.5522847 2,27 L2,5 C2,4.44771525 2.44771525,4 3,4 L8,4 L8,2 L10,2 L10,4 L22,4 L22,2 L24,2 L24,4 Z M24,6 L24,8 L22,8 L22,6 L10,6 L10,8 L8,8 L8,6 L4,6 L4,26 L28,26 L28,6 L24,6 Z M4,10 L28,10 L28,12 L4,12 L4,10 Z" id="Combined-Shape"></path>
                                </g>
                            </g>
                        </g>
                    </g>
                </g>
            </g>
        </g>
    </g>
</svg>
