<?xml version="1.0" encoding="UTF-8"?>
<svg width="256px" height="256px" viewBox="0 0 256 256" version="1.1" xmlns="http://www.w3.org/2000/svg" xmlns:xlink="http://www.w3.org/1999/xlink">
    <!-- Generator: Sketch 52.6 (67491) - http://www.bohemiancoding.com/sketch -->
    <title>系统操作类/常用/用户/用户</title>
    <desc>Created with Sketch.</desc>
    <g id="系统操作类/常用/用户/用户" stroke="none" stroke-width="1" fill-rule="evenodd">
        <path d="M128,16 C110.326888,16 96,30.326888 96,48 L96,80 C96,97.673112 110.326888,112 128,112 C145.673112,112 160,97.673112 160,80 L160,48 C160,30.326888 145.673112,16 128,16 Z M220.030968,165.684731 C222.48871,167.118414 224,169.749626 224,172.594963 L224,232 C224,236.418278 220.418278,240 216,240 L40,240 C35.581722,240 32,236.418278 32,232 L32,172.594963 C32,169.749626 33.5112901,167.118414 35.9690318,165.684731 L108.018238,123.656028 C91.4842054,116.075884 80,99.379082 80,80 L80,48 C80,21.490332 101.490332,3.55271368e-15 128,0 C154.509668,-5.32907052e-15 176,21.490332 176,48 L176,80 C176,99.379082 164.515795,116.075884 147.981762,123.656028 L220.030968,165.684731 Z M48,177.189925 L48,224 L208,224 L208,177.189925 L132.030968,132.874657 C129.540068,131.421632 126.459932,131.421632 123.969032,132.874657 L48,177.189925 Z" id="Combined-Shape" fill-rule="nonzero"></path>
    </g>
</svg>
