<?xml version="1.0" encoding="UTF-8"?>
<svg width="32px" height="32px" viewBox="0 0 32 32" version="1.1" xmlns="http://www.w3.org/2000/svg" xmlns:xlink="http://www.w3.org/1999/xlink">
    <!-- Generator: Sketch 52.6 (67491) - http://www.bohemiancoding.com/sketch -->
    <title>楼宇 copy 3</title>
    <desc>Created with Sketch.</desc>
    <g id="框架设计" stroke="none" stroke-width="1" fill="none" fill-rule="evenodd">
        <g id="01栅格" transform="translate(-1344.000000, -595.000000)" fill="#50545D" fill-rule="nonzero">
            <g id="main" transform="translate(1259.000000, 181.000000)">
                <g id="导航/侧边栏">
                    <g id="楼宇-copy-3" transform="translate(24.000000, 399.000000)">
                        <g id="Group-4" transform="translate(61.000000, 15.000000)">
                            <g id="系统操作类/视频/饱和度" transform="translate(3.000000, 3.000000)">
                                <path d="M12.6058761,14.7394906 C8.89172173,14.3030239 6.01171875,11.1816068 6.01171875,7.39583333 C6.01171875,3.31122737 9.36433646,0 13.5,0 C17.6356635,0 20.9882812,3.31122737 20.9882812,7.39583333 C20.9882812,8.41155739 20.7809641,9.37945774 20.4058426,10.2605094 C20.1126634,10.2260566 19.8142867,10.2083333 19.5117187,10.2083333 C19.174602,10.2083333 18.8426883,10.2303352 18.5173693,10.2729643 C19.0154864,9.42745072 19.3007812,8.44454779 19.3007812,7.39583333 C19.3007812,4.23170195 16.703683,1.66666667 13.5,1.66666667 C10.296317,1.66666667 7.69921875,4.23170195 7.69921875,7.39583333 C7.69921875,10.5599647 10.296317,13.125 13.5,13.125 C13.5175666,13.125 13.5351149,13.1249229 13.5526447,13.124769 C13.171952,13.6180314 12.8526144,14.1599738 12.6058761,14.7394906 Z M12.5844117,14.7369372 C12.573169,14.7331334 12.5618432,14.7292748 12.5504343,14.7253613 C12.7265646,14.3068947 12.8640702,14.0168635 12.962951,13.8552678 C13.0618318,13.693672 13.2414858,13.4653859 13.501913,13.1704094 C13.5048904,13.1734418 13.5078577,13.1764686 13.5108149,13.1794899 C14.8763759,11.3758292 17.0560014,10.2083333 19.5117188,10.2083333 C23.6473823,10.2083333 27,13.5195607 27,17.6041667 C27,21.6887726 23.6473823,25 19.5117188,25 C17.0495082,25 14.8648515,23.826322 13.5,22.014523 C12.1351485,23.826322 9.95049176,25 7.48828125,25 C3.35261771,25 0,21.6887726 0,17.6041667 C0,13.8183932 2.88000298,10.6969761 6.59415736,10.2605094 C6.84089567,10.8400262 7.16023329,11.3819686 7.54092595,11.875231 C7.52339617,11.8750771 7.50584783,11.875 7.48828125,11.875 C4.28459823,11.875 1.6875,14.4400353 1.6875,17.6041667 C1.6875,20.768298 4.28459823,23.3333333 7.48828125,23.3333333 C10.6919643,23.3333333 13.2890625,20.768298 13.2890625,17.6041667 C13.2890625,16.5554522 13.0037677,15.5725493 12.5056506,14.7270357 C12.5318617,14.7304703 12.5581157,14.7337711 12.5844117,14.7369372 Z M14.4332864,14.8332785 C14.7836479,15.6890534 14.9765625,16.6243593 14.9765625,17.6041667 C14.9765625,18.583974 14.7836479,19.51928 14.4332864,20.3750549 C15.4220717,22.1390442 17.3256813,23.3333333 19.5117188,23.3333333 C22.7154018,23.3333333 25.3125,20.768298 25.3125,17.6041667 C25.3125,14.4400353 22.7154018,11.875 19.5117188,11.875 C17.3256813,11.875 15.4220717,13.0692891 14.4332864,14.8332785 Z" id="Combined-Shape"></path>
                            </g>
                        </g>
                    </g>
                </g>
            </g>
        </g>
    </g>
</svg>
