<?xml version="1.0" encoding="UTF-8"?>
<svg width="32px" height="32px" viewBox="0 0 32 32" version="1.1" xmlns="http://www.w3.org/2000/svg" xmlns:xlink="http://www.w3.org/1999/xlink">
    <!-- Generator: Sketch 52.6 (67491) - http://www.bohemiancoding.com/sketch -->
    <title>01栅格</title>
    <desc>Created with Sketch.</desc>
    <g id="框架设计" stroke="none" stroke-width="1" fill="none" fill-rule="evenodd">
        <g id="01栅格" transform="translate(-1344.000000, -424.000000)" fill="#50545D" fill-rule="nonzero">
            <g id="Group-2" transform="translate(1344.000000, 424.000000)">
                <g id="Icon/组件库">
                    <path d="M4,28 L10,28 C10,25.790861 11.790861,24 14,24 C16.209139,24 18,25.790861 18,28 L24,28 L24,20 L26,20 C27.1045695,20 28,19.1045695 28,18 C28,16.8954305 27.1045695,16 26,16 L24,16 L24,8 L16,8 L16,6 C16,4.8954305 15.1045695,4 14,4 C12.8954305,4 12,4.8954305 12,6 L12,8 L4,8 L4,14 C6.209139,14 8,15.790861 8,18 C8,20.209139 6.209139,22 4,22 L4,28 Z M2,20 L4,20 C5.1045695,20 6,19.1045695 6,18 C6,16.8954305 5.1045695,16 4,16 L2,16 L2,7 C2,6.44771525 2.44771525,6 3,6 L10,6 C10,3.790861 11.790861,2 14,2 C16.209139,2 18,3.790861 18,6 L25,6 C25.5522847,6 26,6.44771525 26,7 L26,14 C28.209139,14 30,15.790861 30,18 C30,20.209139 28.209139,22 26,22 L26,29 C26,29.5522847 25.5522847,30 25,30 L16,30 L16,28 C16,26.8954305 15.1045695,26 14,26 C12.8954305,26 12,26.8954305 12,28 L12,30 L3,30 C2.44771525,30 2,29.5522847 2,29 L2,20 Z" id="Combined-Shape" transform="translate(16.000000, 16.000000) rotate(-90.000000) translate(-16.000000, -16.000000) "></path>
                </g>
            </g>
        </g>
    </g>
</svg>
