<?xml version="1.0" encoding="UTF-8"?>
<svg width="32px" height="33px" viewBox="0 0 32 33" version="1.1" xmlns="http://www.w3.org/2000/svg" xmlns:xlink="http://www.w3.org/1999/xlink">
    <!-- Generator: Sketch 52.6 (67491) - http://www.bohemiancoding.com/sketch -->
    <title>Group</title>
    <desc>Created with Sketch.</desc>
    <g id="框架设计" stroke="none" stroke-width="1" fill-rule="evenodd">
        <g id="4快填" transform="translate(-1858.000000, -745.000000)" fill-rule="nonzero">
            <g id="内容" transform="translate(1824.000000, 181.000000)">
                <g id="列表内容" transform="translate(0.000000, 158.000000)">
                    <g id="数据展示/列表/填充收起" transform="translate(0.000000, 384.000000)">
                        <g id="Group" transform="translate(34.000000, 20.745690)">
                            <g id="Group-3" transform="translate(0.000000, 2.000000)">
                                <g id="系统操作类/常用/时间" transform="translate(1.000000, 1.000000)">
                                    <path d="M14,16 L22,16 L22,18 L13,18 C12.4477153,18 12,17.5522847 12,17 L12,10 L14,10 L14,16 Z M15,30 C6.71572875,30 0,23.2842712 0,15 C0,6.71572875 6.71572875,0 15,0 C23.2842712,0 30,6.71572875 30,15 C30,23.2842712 23.2842712,30 15,30 Z M15,28.125 C22.2487373,28.125 28.125,22.2487373 28.125,15 C28.125,7.75126266 22.2487373,1.875 15,1.875 C7.75126266,1.875 1.875,7.75126266 1.875,15 C1.875,22.2487373 7.75126266,28.125 15,28.125 Z" id="Combined-Shape"></path>
                                </g>
                            </g>
                        </g>
                    </g>
                </g>
            </g>
        </g>
    </g>
</svg>
